<svg width="383" height="383" viewBox="0 0 383 383" fill="none" xmlns="http://www.w3.org/2000/svg">
<g clip-path="url(#clip0)">
<rect x="12" y="256" width="363" height="108" fill="#B7B8C1"/>
<rect x="41" y="18" width="297" height="190" fill="#B7B8C1"/>
<rect x="68" y="38" width="251" height="153" fill="#0D04D8"/>
<path d="M368.64 358.9H369.14V358.4V262.827V262.327H368.64H13.653H13.153V262.827V358.4V358.9H13.653H368.64ZM6.827 249.673H375.467C378.964 249.673 381.793 252.503 381.794 256V365.227C381.794 368.725 378.964 371.554 375.467 371.554H6.827C3.32919 371.554 0.5 368.724 0.5 365.227V256C0.5 252.503 3.32919 249.673 6.827 249.673Z" fill="#B7B8C1" stroke="black"/>
<path d="M266.24 249.673H266.74V249.173V242.346V241.846H266.24H116.053H115.553V242.346V249.173V249.673H116.053H266.24ZM109.227 229.193H273.067C276.564 229.193 279.393 232.023 279.394 235.52V256C279.394 259.498 276.564 262.327 273.067 262.327H109.227C105.729 262.327 102.9 259.497 102.9 256V235.52C102.9 232.022 105.73 229.193 109.227 229.193Z" fill="#B7B8C1" stroke="black"/>
<path d="M225.28 229.193H225.78V228.693V221.866V221.366H225.28H157.013H156.513V221.866V228.693V229.193H157.013H225.28ZM150.187 208.713H232.107C235.604 208.713 238.433 211.543 238.434 215.04C238.434 215.04 238.434 215.04 238.434 215.04V235.52C238.434 239.018 235.604 241.847 232.107 241.847H150.187C146.689 241.847 143.86 239.017 143.86 235.52V215.04C143.86 211.542 146.69 208.713 150.187 208.713Z" fill="#B7B8C1" stroke="black"/>
<path d="M341.333 9.73999H40.96C36.9109 9.73999 33.633 13.0168 33.633 17.067V215.04C33.633 219.089 36.9098 222.367 40.96 222.367H341.333C345.382 222.367 348.66 219.09 348.66 215.04V17.067C348.66 13.0168 345.383 9.73999 341.333 9.73999ZM334.007 207.713H48.287V24.393H334.007V207.713Z" fill="#B7B8C1" stroke="black"/>
<path d="M320.853 30.72H61.44C57.667 30.72 54.613 33.773 54.613 37.547V194.56C54.613 198.333 57.666 201.387 61.44 201.387H320.853C324.626 201.387 327.68 198.334 327.68 194.56V37.547C327.68 33.773 324.627 30.72 320.853 30.72ZM314.027 187.733H68.267V44.373H314.027V187.733Z" fill="#B7B8C1"/>
<path d="M172.905 297H40.6149C38.4198 297 36.2843 297.441 34.5866 298.297C33.0601 299.066 31 300.677 31 303.333V316.667C31 319.322 33.0595 320.934 34.586 321.703C36.2836 322.559 38.4192 323 40.6149 323H172.905C175.1 323 177.236 322.559 178.933 321.703C180.46 320.934 182.52 319.323 182.52 316.667V303.333C182.52 300.677 180.46 299.066 178.933 298.297C177.236 297.441 175.1 297 172.905 297ZM163.29 310.333H50.2287V309.666H163.29V310.333Z" fill="#323232" stroke="#323232" stroke-width="6"/>
<ellipse cx="309" cy="311.5" rx="29" ry="29.5" fill="#323232"/>
</g>
<defs>
<clipPath id="clip0">
<rect width="382.293" height="382.293" fill="white"/>
</clipPath>
</defs>
</svg>
