<svg width="200" height="234" viewBox="0 0 200 234" fill="none" xmlns="http://www.w3.org/2000/svg">
<path d="M192.26 145.05V147.47H191.86V144.51H192.53L193.47 146.8L194.27 144.51H195.08V147.47H194.54V145.05L193.74 147.47H193.2L192.26 145.05Z" fill="black"/>
<path d="M188.76 144.92V144.51H191.18V144.92H190.24V147.47H189.84V144.92H188.76Z" fill="black"/>
<path d="M183.4 69.1V126.19C170.4 121.92 158.4 119.51 142.62 120.25V63.7201C156.45 62.0196 170.485 63.8711 183.4 69.1Z" fill="#FEFE00"/>
<path d="M182.01 16.7799V70.9298C177.01 69.0298 165.91 65.5797 159.16 65.5797H143.94V10.7301C156.937 9.51476 170.03 11.5953 182.01 16.7799Z" fill="#007F00"/>
<path d="M139.4 65.8102L140.4 127.4L106.61 122.69V82.3801L115.52 70.3L139.4 65.8102Z" fill="#0000FE"/>
<path d="M146.46 10.7502L141.86 72.1799L106.67 69.3498V27.84L118.2 15.4001L146.46 10.7502Z" fill="#FE0000"/>
<path d="M106.67 82.3801V122.69L106.54 122.75V82.4401L106.67 82.3801Z" fill="#3E89D0"/>
<path d="M106.67 27.84V69.32L106.54 69.3801V27.8698L106.67 27.84Z" fill="#F3652F"/>
<path d="M87.33 149.62V132.96L103.99 124.9V140.89L87.33 149.62Z" fill="black"/>
<path d="M87.33 130.54V113.88L103.99 105.82V121.94L87.33 130.54Z" fill="black"/>
<path d="M87.33 111.06V94.54L103.99 86.34V102.46L87.33 111.06Z" fill="black"/>
<path d="M87.33 92.39V75.73L103.99 67.66V83.65L87.33 92.39Z" fill="black"/>
<path d="M87.33 73.31V56.65L103.99 48.59V64.71L87.33 73.31Z" fill="black"/>
<path d="M87.33 54.5V37.84L103.99 29.64V45.77L87.33 54.5Z" fill="black"/>
<path d="M87.33 35.42V18.76L103.99 10.7V26.69L87.33 35.42Z" fill="black"/>
<path d="M68.52 152.84V137.8L83.97 130.01V145.05L68.52 152.84Z" fill="black"/>
<path d="M68.52 133.9V118.72L83.97 110.93V125.97L68.52 133.9Z" fill="#0000FE"/>
<path d="M68.52 115.5V100.31L83.97 92.52V107.57L68.52 115.5Z" fill="#0000FE"/>
<path d="M68.52 96.28V81.1L83.97 73.31V88.36L68.52 96.28Z" fill="black"/>
<path d="M68.52 77.07V62.02L83.97 54.23V69.28L68.52 77.07Z" fill="#FE0000"/>
<path d="M68.52 58.8V43.75L83.97 35.96V51.01L68.52 58.8Z" fill="#FE0000"/>
<path d="M68.52 39.59V24.54L83.97 16.74V31.79L68.52 39.59Z" fill="black"/>
<path d="M51.86 150.43V137.13L65.03 130.95V144.11L51.86 150.43Z" fill="black"/>
<path d="M51.86 131.35V118.18L65.03 111.87V125.17L51.86 131.35Z" fill="#0000FE"/>
<path d="M51.86 113.21V99.91L65.03 93.6V106.9L51.86 113.21Z" fill="#0000FE"/>
<path d="M51.86 93.86V80.56L65.03 74.38V87.55L51.86 93.86Z" fill="black"/>
<path d="M51.86 74.79V61.48L65.03 55.31V68.47L51.86 74.79Z" fill="#FE0000"/>
<path d="M51.86 56.51V43.21L65.03 36.9V50.2L51.86 56.51Z" fill="#FE0000"/>
<path d="M51.86 37.17V23.87L65.03 17.69V30.85L51.86 37.17Z" fill="black"/>
<path d="M36.41 147.34V137.8L47.16 132.69V142.5L36.41 147.34Z" fill="black"/>
<path d="M36.41 128.39V118.72L47.16 113.61V123.42L36.41 128.39Z" fill="#0000FE"/>
<path d="M36.41 109.99V100.31L47.16 95.21V105.02L36.41 109.99Z" fill="#0000FE"/>
<path d="M36.41 90.64V81.1L47.16 75.99V85.8L36.41 90.64Z" fill="black"/>
<path d="M36.41 71.56V62.02L47.16 56.78V66.73L36.41 71.56Z" fill="#FE0000"/>
<path d="M36.41 53.29V43.75L47.16 38.65V48.45L36.41 53.29Z" fill="#FE0000"/>
<path d="M36.41 34.08V24.54L47.16 19.43V29.24L36.41 34.08Z" fill="black"/>
<path d="M21.9 139.41V131.48L29.69 126.78V135.11L21.9 139.41Z" fill="black"/>
<path d="M21.9 120.47V112.4L29.69 107.7V116.03L21.9 120.47Z" fill="#0000FE"/>
<path d="M21.9 102.06V94.13L29.69 89.43V97.63L21.9 102.06Z" fill="#0000FE"/>
<path d="M21.9 82.85V74.79L29.69 70.08V78.41L21.9 82.85Z" fill="black"/>
<path d="M21.9 63.77V55.71L29.69 51.01V59.34L21.9 63.77Z" fill="#FE0000"/>
<path d="M21.9 45.36V37.44L29.69 32.73V41.06L21.9 45.36Z" fill="#FE0000"/>
<path d="M21.9 26.15V18.22L29.69 13.52V21.72L21.9 26.15Z" fill="black"/>
<path d="M8.60001 132.56V127.05L14.64 123.96V129.87L8.60001 132.56Z" fill="black"/>
<path d="M8.60001 113.48V107.97L14.64 105.02V110.79L8.60001 113.48Z" fill="#0000FE"/>
<path d="M8.60001 95.07V89.57L14.64 86.61V92.39L8.60001 95.07Z" fill="#0000FE"/>
<path d="M8.60001 75.86V70.22L14.64 67.26V73.17L8.60001 75.86Z" fill="black"/>
<path d="M8.60001 56.78V51.14L14.64 48.32V54.23L8.60001 56.78Z" fill="#FE0000"/>
<path d="M8.60001 38.51V32.87L14.64 29.91V35.82L8.60001 38.51Z" fill="#FE0000"/>
<path d="M8.60001 19.3V13.79L14.64 10.7V16.61L8.60001 19.3Z" fill="black"/>
<path d="M196.15 10.9699V141.83C164.85 126.65 134.89 125.03 106.68 141.43V122.69C116.19 118.421 126.219 115.415 136.51 113.75V73.9802C126.121 74.8465 115.994 77.698 106.68 82.3801V69.3801C116.57 64.8501 126.48 61.7802 136.51 60.9802V19.32C128.07 19.86 118.44 22.6601 106.68 27.8601V9.50996C135.43 -2.98004 165.12 -3.79006 196.15 10.9899V10.9699ZM177.75 117.51V76.1301C168.388 72.3393 158.215 70.9972 148.19 72.2302V113.23C158.228 112.72 168.269 114.174 177.75 117.51ZM177.75 64.1701V22.1198C168.449 18.09 158.282 16.4736 148.19 17.4201V60.01H160.01C165.25 60.01 173.85 62.6901 177.75 64.1701Z" fill="black"/>
</svg>
